<svg width="104" height="104" viewBox="0 0 104 104" fill="none" xmlns="http://www.w3.org/2000/svg">
<path fill-rule="evenodd" clip-rule="evenodd" d="M29.3184 83.2001H41.65V96.2001H15.65C14.214 96.2001 13.05 97.3642 13.05 98.8001C13.05 100.236 14.214 101.4 15.65 101.4H41.65H62.45H88.45C89.8859 101.4 91.05 100.236 91.05 98.8001C91.05 97.3642 89.8859 96.2001 88.45 96.2001H62.45V83.2001H74.15C78.4578 83.2001 81.95 79.7079 81.95 75.4001V59.8001C81.95 55.4923 78.4578 52.0001 74.15 52.0001H62.45V43.4657L71.888 42.8057C73.8333 42.6697 75.6571 41.81 76.9999 40.396L83.6279 33.4166C86.7806 30.0967 86.4094 24.7881 82.8253 21.9393L75.2905 15.9503C73.7639 14.7369 71.8383 14.1394 69.893 14.2754L62.45 14.7959V8.3201C62.45 5.16103 59.889 2.6001 56.73 2.6001H47.37C44.2109 2.6001 41.65 5.16107 41.65 8.3201V16.2503L33.4806 16.8216C29.1833 17.1221 25.9432 20.8494 26.2437 25.1467L27.1505 38.115C27.451 42.4124 31.1783 45.6524 35.4756 45.3519L41.65 44.9202V52.0001H29.3184C27.3684 52.0001 25.4891 52.7305 24.0509 54.0474L15.5325 61.8474C12.1558 64.9393 12.1558 70.2609 15.5325 73.3528L24.0509 81.1528C25.4891 82.4697 27.3684 83.2001 29.3184 83.2001ZM46.85 44.5566V52.0001H57.25V43.8293L46.85 44.5566ZM46.85 15.8867L57.25 15.1595V8.3201C57.25 8.03291 57.0172 7.8001 56.73 7.8001H47.37C47.0828 7.8001 46.85 8.03291 46.85 8.3201V15.8867ZM57.25 96.2001V83.2001H46.85V96.2001H57.25ZM74.15 57.2001C75.5859 57.2001 76.75 58.3642 76.75 59.8001V75.4001C76.75 76.836 75.5859 78.0001 74.15 78.0001H29.3184C28.6684 78.0001 28.042 77.7566 27.5626 77.3177L19.0442 69.5177C17.9186 68.487 17.9186 66.7132 19.0442 65.6825L27.5626 57.8825C28.042 57.4436 28.6684 57.2001 29.3184 57.2001H65.05V67.6001C65.05 69.036 66.214 70.2001 67.65 70.2001C69.0859 70.2001 70.25 69.036 70.25 67.6001V57.2001H74.15ZM31.431 24.784C31.3309 23.3515 32.4109 22.1091 33.8433 22.0089L36.6771 21.8108L37.3568 31.5312C37.457 32.9636 38.6994 34.0437 40.1319 33.9435C41.5643 33.8433 42.6443 32.6009 42.5442 31.1685L41.8644 21.448L70.2557 19.4627C70.9041 19.4174 71.546 19.6166 72.0549 20.021L79.5897 26.01C80.7844 26.9596 80.9081 28.7292 79.8572 29.8358L73.2292 36.8151C72.7816 37.2865 72.1737 37.5731 71.5253 37.6184L35.1129 40.1646C33.6805 40.2648 32.438 39.1847 32.3379 37.7523L31.431 24.784Z" fill="#252849"/>
</svg>
