<svg width="104" height="104" viewBox="0 0 104 104" fill="none" xmlns="http://www.w3.org/2000/svg">
<path fill-rule="evenodd" clip-rule="evenodd" d="M47.4957 25.0093C43.2776 25.0093 39.8582 28.4287 39.8582 32.6468V58.177L37.7736 56.5415C34.2916 53.8094 29.2857 54.2549 26.3409 57.5589C23.7517 60.4638 23.5019 64.7684 25.7377 67.9532L37.005 84.0038C39.0074 86.8563 40.4365 90.0705 41.2131 93.468C42.25 98.0046 46.2856 101.222 50.9391 101.222H65.8546C71.9183 101.222 77.1766 97.0297 78.5277 91.1185L79.1577 88.3625C83.1833 82.961 85.3581 76.4039 85.3581 69.6665V59.2968H85.3577V58.9718C85.3577 54.7537 81.9383 51.3343 77.7202 51.3343C76.7664 51.3343 75.8534 51.5091 75.0115 51.8285C74.1243 48.593 71.1624 46.2155 67.6452 46.2155C66.6407 46.2155 65.6815 46.4095 64.8029 46.7619C63.7791 43.7507 60.9277 41.5843 57.5702 41.5843C56.7181 41.5843 55.8985 41.7238 55.1332 41.9813V32.6468C55.1332 28.4287 51.7137 25.0093 47.4957 25.0093ZM75.2827 58.9718V59.703V63.8468C75.2827 65.2827 74.1187 66.4468 72.6827 66.4468C71.2468 66.4468 70.0827 65.2827 70.0827 63.8468V59.703V58.9718V53.853C70.0827 52.5068 68.9914 51.4155 67.6452 51.4155C66.299 51.4155 65.2077 52.5068 65.2077 53.853V57.103V59.703C65.2077 61.139 64.0437 62.303 62.6077 62.303C61.1718 62.303 60.0077 61.139 60.0077 59.703V57.103V53.853V49.2218C60.0077 47.8756 58.9164 46.7843 57.5702 46.7843C56.2396 46.7843 55.158 47.8505 55.1332 49.1752V50.3593H55.1327V57.103C55.1327 58.539 53.9687 59.703 52.5327 59.703C51.0968 59.703 49.9327 58.539 49.9327 57.103V49.2218L49.9332 49.1393V32.6468C49.9332 31.3006 48.8418 30.2093 47.4957 30.2093C46.1495 30.2093 45.0582 31.3006 45.0582 32.6468V63.5218C45.0582 64.5168 44.4903 65.4246 43.5955 65.8598C42.7007 66.2951 41.636 66.1815 40.8532 65.5673L34.5638 60.6325C33.2416 59.5951 31.3409 59.7643 30.2227 61.0188C29.2396 62.1218 29.1448 63.7563 29.9937 64.9655L41.261 81.0162C43.6503 84.4198 45.3557 88.2553 46.2824 92.3093C46.7788 94.4814 48.711 96.0218 50.9391 96.0218H65.8546C69.4928 96.0218 72.6478 93.5066 73.4585 89.9598L74.0983 87.1607C74.2535 86.4817 74.5491 85.8427 74.9661 85.2849C78.3368 80.7754 80.1581 75.2965 80.1581 69.6665V63.8949C80.1579 63.8789 80.1577 63.8629 80.1577 63.8468V58.9718C80.1577 57.6256 79.0664 56.5343 77.7202 56.5343C76.374 56.5343 75.2827 57.6256 75.2827 58.9718Z" fill="#252849"/>
<path d="M72.9024 37.8346C73.6113 34.889 73.8136 31.7687 73.4226 28.5845C71.6726 14.3321 58.7002 4.1969 44.4478 5.94688C30.1954 7.69685 20.0602 20.6693 21.8102 34.9217C22.4081 39.7913 24.3162 44.1803 27.1377 47.7789" stroke="#252849" stroke-width="5.2" stroke-linecap="round"/>
<path d="M34.1456 36.9727C33.6066 35.5807 33.2758 34.0807 33.1935 32.5089C32.776 24.5424 38.8956 17.7458 46.8621 17.3283C54.8287 16.9108 61.6253 23.0304 62.0428 30.997C62.1251 32.5688 61.953 34.0951 61.5624 35.5359" stroke="#252849" stroke-width="5.2" stroke-linecap="round"/>
</svg>
