<svg width="104" height="104" viewBox="0 0 104 104" fill="none" xmlns="http://www.w3.org/2000/svg">
<path fill-rule="evenodd" clip-rule="evenodd" d="M67.5998 12.6751C67.5998 9.80322 65.2717 7.4751 62.3998 7.4751H59.1498C56.2779 7.4751 53.9498 9.80322 53.9498 12.6751V13.7313H50.0498V12.6751C50.0498 9.80322 47.7217 7.4751 44.8498 7.4751H41.5998C38.7279 7.4751 36.3998 9.80322 36.3998 12.6751V13.7313H11.9436V48.2626H20.7998V59.1501C13.6201 59.1501 7.7998 64.9704 7.7998 72.1501V88.7251C7.7998 93.0329 11.292 96.5251 15.5998 96.5251H20.7998H25.9998H77.9998H83.1998H88.3998C92.7076 96.5251 96.1998 93.0329 96.1998 88.7251V72.1501C96.1998 64.9704 90.3795 59.1501 83.1998 59.1501V48.2626H92.0548V13.7313H67.5998V12.6751ZM36.3998 18.9313H17.1436V43.0626H20.7998V41.9251C20.7998 32.7563 27.5798 25.171 36.3998 23.9094V18.9313ZM41.5998 23.7251H44.8498V12.6751H41.5998V23.7251ZM50.0498 28.9251H38.9998C38.1094 28.9251 37.2399 29.0146 36.3998 29.1851V46.0689C36.3998 51.5095 39.742 56.1696 44.4853 58.1078C45.4018 54.8193 48.419 52.4064 51.9998 52.4064C55.5806 52.4064 58.5978 54.8193 59.5143 58.1078C64.2576 56.1696 67.5998 51.5095 67.5998 46.0689V29.1851C66.7597 29.0146 65.8902 28.9251 64.9998 28.9251H53.9498H50.0498ZM50.0498 23.7251V18.9313H53.9498V23.7251H50.0498ZM62.3998 23.7251H59.1498V12.6751H62.3998V23.7251ZM67.5998 18.9313V23.9094C76.4198 25.171 83.1998 32.7563 83.1998 41.9251V43.0626H86.8548V18.9313H67.5998ZM77.9998 91.3251V81.9253C71.0479 84.4846 63.6881 85.8001 56.2585 85.8001H48.0655C40.5203 85.8001 33.047 84.4433 25.9998 81.8049V91.3251H77.9998ZM25.9998 76.2169C32.9919 79.1089 40.4892 80.6001 48.0655 80.6001H56.2585C63.7178 80.6001 71.1005 79.1546 77.9998 76.3499V59.1501V41.9251C77.9998 37.672 75.9574 33.8959 72.7998 31.5241V46.0689C72.7998 54.3255 67.3018 61.2979 59.7671 63.5249C59.4045 67.4959 56.0654 70.6064 51.9998 70.6064C47.9342 70.6064 44.5951 67.4959 44.2325 63.5249C36.6978 61.2979 31.1998 54.3255 31.1998 46.0689V31.5241C28.0422 33.8959 25.9998 37.672 25.9998 41.9251V59.1501V76.2169ZM20.7998 91.3251V74.5876H12.9998V88.7251C12.9998 90.161 14.1639 91.3251 15.5998 91.3251H20.7998ZM13.5031 69.3876H20.7998V64.3501C17.4647 64.3501 14.6184 66.4433 13.5031 69.3876ZM83.1998 64.3501V69.3876H90.4965C89.3812 66.4433 86.5349 64.3501 83.1998 64.3501ZM90.9998 74.5876H83.1998V91.3251H88.3998C89.8357 91.3251 90.9998 90.161 90.9998 88.7251V74.5876ZM51.9998 65.4064C50.5639 65.4064 49.3998 64.2423 49.3998 62.8064V60.2064C49.3998 58.7704 50.5639 57.6064 51.9998 57.6064C53.4357 57.6064 54.5998 58.7704 54.5998 60.2064V62.8064C54.5998 64.2423 53.4357 65.4064 51.9998 65.4064Z" fill="#252849"/>
</svg>
