<svg width="32" height="32" viewBox="0 0 32 32" fill="none" xmlns="http://www.w3.org/2000/svg">
<path fill-rule="evenodd" clip-rule="evenodd" d="M5 4C5.55228 4 6 4.44772 6 5V7.375H10.6492L10.9231 7.15587C12.3641 6.00306 14.1546 5.375 16 5.375C17.8454 5.375 19.6359 6.00306 21.0769 7.15587L21.3508 7.375H26V5C26 4.44772 26.4477 4 27 4C27.5523 4 28 4.44772 28 5V7.375V9.625V16.7292C28.6224 17.4343 29 18.3606 29 19.375V19.384C30.1213 19.485 31 20.4274 31 21.575V24.175C31 25.39 30.015 26.375 28.8 26.375H27V27C27 27.5523 26.5523 28 26 28C25.4477 28 25 27.5523 25 27V26.375H7V27C7 27.5523 6.55228 28 6 28C5.44772 28 5 27.5523 5 27V26.375H3.2C1.98499 26.375 1 25.39 1 24.175V21.575C1 20.4274 1.8787 19.485 3 19.384V19.375C3 18.3606 3.37764 17.4343 4 16.7292V9.625V7.375V5C4 4.44772 4.44772 4 5 4ZM26 9.625V9.375H20.6492L19.8275 8.71761C18.7411 7.8485 17.3913 7.375 16 7.375C14.6087 7.375 13.2589 7.8485 12.1725 8.71761L11.3508 9.375H6V9.625V15.375H7H7.45196C7.86379 14.2098 8.97503 13.375 10.2812 13.375H12.2812C13.5875 13.375 14.6987 14.2098 15.1105 15.375H16.8895C17.3013 14.2098 18.4125 13.375 19.7188 13.375H21.7188C23.025 13.375 24.1362 14.2098 24.548 15.375H25H26V9.625ZM28.8 24.375H26H6H3.2C3.08954 24.375 3 24.2855 3 24.175V21.575C3 21.4645 3.08954 21.375 3.2 21.375H28.8C28.9105 21.375 29 21.4645 29 21.575V24.175C29 24.2855 28.9105 24.375 28.8 24.375ZM27 19.375C27 18.2704 26.1046 17.375 25 17.375H23.7188H17.7188H14.2812H8.28125H7C5.89543 17.375 5 18.2704 5 19.375H27Z" fill="#252849"/>
</svg>
