<svg width="32" height="32" viewBox="0 0 32 32" fill="none" xmlns="http://www.w3.org/2000/svg">
<path fill-rule="evenodd" clip-rule="evenodd" d="M16.3939 3.08085C16.1424 2.97305 15.8576 2.97305 15.6061 3.08085L1.60608 9.08085C1.2384 9.23843 1 9.59997 1 10V13.1875C1 13.7398 1.44772 14.1875 2 14.1875H3V15.7875C3 16.4863 3.51193 17.0655 4.1812 17.1705L3.81802 27H2C1.44772 27 1 27.4477 1 28C1 28.5523 1.44772 29 2 29H30C30.5523 29 31 28.5523 31 28C31 27.4477 30.5523 27 30 27H28.1821L27.8189 17.1705C28.4881 17.0654 29 16.4862 29 15.7875V14.1875H30C30.5523 14.1875 31 13.7398 31 13.1875V10C31 9.59997 30.7616 9.23843 30.3939 9.08085L16.3939 3.08085ZM27 14.1875H23V15.1875H27V14.1875ZM21 12.1875H29V10.6594L16 5.08797L3 10.6594V12.1875H11H12H20H21ZM21 14.1875V15.7875C21 16.4863 21.5119 17.0655 22.1812 17.1705L21.818 27H19.1821L18.8189 17.1705C19.4881 17.0654 20 16.4862 20 15.7875V14.1875H21ZM24.182 17.1875L23.8194 27H26.1807L25.8182 17.1875H24.182ZM5 14.1875H9V15.1875H5V14.1875ZM12 14.1875H11V15.7875C11 16.4862 10.4881 17.0654 9.81893 17.1705L10.1821 27H12.818L13.1812 17.1705C12.5119 17.0655 12 16.4863 12 15.7875V14.1875ZM6.18197 17.1875H7.81817L8.18072 27H5.81942L6.18197 17.1875ZM14 14.1875V15.1875H18V14.1875H14ZM16.8182 17.1875H15.182L14.8194 27H17.1807L16.8182 17.1875ZM15.6061 7.08085C15.8576 6.97305 16.1424 6.97305 16.3939 7.08085L19.8939 8.58085C20.4016 8.79841 20.6367 9.38629 20.4192 9.89392C20.2016 10.4015 19.6137 10.6367 19.1061 10.4191L16 9.08797L12.8939 10.4191C12.3863 10.6367 11.7984 10.4015 11.5809 9.89392C11.3633 9.38629 11.5985 8.79841 12.1061 8.58085L15.6061 7.08085Z" fill="#252849"/>
</svg>
