<svg width="32" height="32" viewBox="0 0 32 32" fill="none" xmlns="http://www.w3.org/2000/svg">
<path fill-rule="evenodd" clip-rule="evenodd" d="M18.2489 2C15.211 2 12.6252 3.92654 11.6429 6.62322C7.83137 7.54304 5 10.9743 5 15.0685C5 19.8665 8.88953 23.756 13.6875 23.756C14.1333 23.756 14.5717 23.7224 15 23.6574V28H11C10.4477 28 10 28.4477 10 29C10 29.5523 10.4477 30 11 30H16H21C21.5523 30 22 29.5523 22 29C22 28.4477 21.5523 28 21 28H17V23.3431C17.7734 23.6108 18.6033 23.756 19.4655 23.756C23.6266 23.756 26.9998 20.3828 26.9998 16.2218C26.9998 14.2344 26.2294 12.426 24.9731 11.0806C25.1712 10.4306 25.2776 9.74137 25.2776 9.02871C25.2776 5.14686 22.1308 2 18.2489 2ZM17 21.1896C17.0419 21.2028 17.0832 21.2189 17.1234 21.2377C17.8335 21.5699 18.6264 21.756 19.4655 21.756C22.522 21.756 24.9998 19.2783 24.9998 16.2218C24.9998 14.5805 24.2866 13.1071 23.15 12.0922C22.8323 11.8085 22.7292 11.3547 22.893 10.9616C23.1405 10.3678 23.2776 9.71556 23.2776 9.02871C23.2776 6.25143 21.0262 4 18.2489 4C15.9181 4 13.9553 5.58666 13.3865 7.74043C13.286 8.12096 12.9716 8.40716 12.5833 8.47159C9.41552 8.99728 7 11.7518 7 15.0685C7 18.7619 9.9941 21.756 13.6875 21.756C14.1372 21.756 14.576 21.7118 15 21.6275V16.7882C14.9923 16.7809 14.9846 16.7735 14.9771 16.7659L12.637 14.4259C12.2465 14.0353 12.2465 13.4022 12.637 13.0116C13.0275 12.6211 13.6607 12.6211 14.0512 13.0116L15 13.9605V11.3125C15 10.7602 15.4477 10.3125 16 10.3125C16.5523 10.3125 17 10.7602 17 11.3125L17 16.9607L17.9491 16.0116C18.3396 15.6211 18.9727 15.6211 19.3633 16.0116C19.7538 16.4022 19.7538 17.0353 19.3633 17.4259L17.0232 19.7659C17.0155 19.7736 17.0078 19.7811 17 19.7884V21.1896Z" fill="#252849"/>
</svg>
