<svg width="32" height="32" viewBox="0 0 32 32" fill="none" xmlns="http://www.w3.org/2000/svg">
<path fill-rule="evenodd" clip-rule="evenodd" d="M15 5C15 5.55228 15.4477 6 16 6C16.5523 6 17 5.55228 17 5V2C17 1.44772 16.5523 1 16 1C15.4477 1 15 1.44772 15 2V5ZM6 20.7914C6 15.2685 10.4772 10.7914 16 10.7914C21.5228 10.7914 26 15.2685 26 20.7914C26 21.5512 25.9154 22.2902 25.7555 23H6.2445C6.08456 22.2902 6 21.5512 6 20.7914ZM4.02854 21.625H3C2.44772 21.625 2 21.1773 2 20.625C2 20.0727 2.44772 19.625 3 19.625H4.05596C4.64242 13.5449 9.76609 8.79138 16 8.79138C22.2339 8.79138 27.3576 13.5449 27.944 19.625H29C29.5523 19.625 30 20.0727 30 20.625C30 21.1773 29.5523 21.625 29 21.625H27.9715C27.9082 22.5454 27.7411 23.4382 27.4813 24.2913L27.2655 25H4.73448L4.51869 24.2913C4.25893 23.4382 4.09177 22.5454 4.02854 21.625ZM4 27C3.44772 27 3 27.4477 3 28C3 28.5523 3.44772 29 4 29H28C28.5523 29 29 28.5523 29 28C29 27.4477 28.5523 27 28 27H4ZM15 13.7914C15 13.2391 15.4477 12.7914 16 12.7914C19.0294 12.7914 21.664 14.4756 23.0211 16.954C23.2863 17.4384 23.1087 18.0461 22.6242 18.3114C22.1398 18.5766 21.5321 18.399 21.2668 17.9146C20.2466 16.0513 18.2697 14.7914 16 14.7914C15.4477 14.7914 15 14.3437 15 13.7914ZM12 6C11.4477 6 11 5.55228 11 5V4C11 3.44772 11.4477 3 12 3C12.5523 3 13 3.44772 13 4V5C13 5.55228 12.5523 6 12 6ZM19 5C19 5.55228 19.4477 6 20 6C20.5523 6 21 5.55228 21 5V4C21 3.44772 20.5523 3 20 3C19.4477 3 19 3.44772 19 4V5Z" fill="#252849"/>
</svg>
