<svg width="64" height="64" viewBox="0 0 64 64" fill="none" xmlns="http://www.w3.org/2000/svg">
<path fill-rule="evenodd" clip-rule="evenodd" d="M18.6865 18.6862C19.7279 17.6449 21.4164 17.645 22.4577 18.6865L32 28.23L41.5423 18.6865C42.5836 17.645 44.272 17.6449 45.3135 18.6862C46.355 19.7275 46.3551 21.416 45.3138 22.4574L35.771 32.0015L45.3128 41.5447C46.3541 42.5862 46.354 44.2746 45.3126 45.3159C44.2711 46.3573 42.5827 46.3571 41.5413 45.3157L32 35.773L22.4586 45.3157C21.4173 46.3571 19.7289 46.3573 18.6874 45.3159C17.6459 44.2746 17.6458 42.5862 18.6871 41.5447L28.229 32.0015L18.6862 22.4574C17.6449 21.416 17.645 19.7275 18.6865 18.6862Z" fill="#7C7E92" fill-opacity="0.56"/>
<circle cx="32" cy="32" r="29.335" stroke="#7C7E92" stroke-opacity="0.56" stroke-width="5.33"/>
</svg>
