<svg width="64" height="64" viewBox="0 0 64 64" fill="none" xmlns="http://www.w3.org/2000/svg">
<path fill-rule="evenodd" clip-rule="evenodd" d="M58.6663 10.6667C58.6663 15.085 55.0846 18.6667 50.6663 18.6667C47.1831 18.6667 44.2198 16.4406 43.1216 13.3334H18.6663C14.2481 13.3334 10.6663 16.9151 10.6663 21.3334V22.0248C10.6663 26.4431 14.2481 30.0248 18.6663 30.0248H45.6787C52.8516 30.0248 58.6663 35.8395 58.6663 43.0124C58.6663 50.1853 52.8516 56.0001 45.6787 56.0001H41.1046L41.8857 56.7811C42.9271 57.8225 42.9271 59.511 41.8857 60.5524C40.8443 61.5938 39.1559 61.5938 38.1145 60.5524L30.8955 53.3334L38.1145 46.1145C39.1559 45.0731 40.8443 45.0731 41.8857 46.1145C42.9271 47.1559 42.9271 48.8443 41.8857 49.8857L41.1046 50.6667H45.6787C49.9061 50.6667 53.333 47.2398 53.333 43.0124C53.333 38.7851 49.9061 35.3581 45.6787 35.3581H18.6663C11.3025 35.3581 5.33301 29.3886 5.33301 22.0248V21.3334C5.33301 13.9696 11.3025 8.00008 18.6663 8.00008H43.1216C44.2198 4.8929 47.1831 2.66675 50.6663 2.66675C55.0846 2.66675 58.6663 6.24847 58.6663 10.6667ZM13.333 61.3334C17.7513 61.3334 21.333 57.7517 21.333 53.3334C21.333 48.9151 17.7513 45.3334 13.333 45.3334C8.91473 45.3334 5.33301 48.9151 5.33301 53.3334C5.33301 57.7517 8.91473 61.3334 13.333 61.3334Z" fill="#7C7E92" fill-opacity="0.56"/>
</svg>
