<svg width="64" height="64" viewBox="0 0 64 64" fill="none" xmlns="http://www.w3.org/2000/svg">
<path fill-rule="evenodd" clip-rule="evenodd" d="M13.3333 32C13.3333 21.6907 21.6907 13.3333 32 13.3333C42.3093 13.3333 50.6667 21.6907 50.6667 32C50.6667 36.1116 49.3405 39.9056 47.0919 42.988C46.9354 43.2025 46.8156 43.4326 46.7313 43.6707C46.6656 43.7291 46.6022 43.7912 46.5414 43.857C45.5419 44.9388 45.6086 46.6259 46.6904 47.6253L54.357 54.7087C55.4388 55.7081 57.1259 55.6414 58.1253 54.5596C59.1248 53.4779 59.058 51.7908 57.9763 50.7913L52.0004 45.2701C54.5272 41.4684 56 36.9028 56 32C56 18.7452 45.2548 8 32 8C18.7452 8 8 18.7452 8 32C8 45.2548 18.7452 56 32 56C35.8268 56 39.4515 55.1024 42.6682 53.5038C43.9871 52.8484 44.5249 51.2479 43.8695 49.929C43.2141 48.6102 41.6136 48.0723 40.2947 48.7278C37.799 49.968 34.9849 50.6667 32 50.6667C21.6907 50.6667 13.3333 42.3093 13.3333 32Z" fill="#7C7E92" fill-opacity="0.56"/>
</svg>
