<svg width="24" height="24" viewBox="0 0 24 24" fill="none" xmlns="http://www.w3.org/2000/svg">
<path fill-rule="evenodd" clip-rule="evenodd" d="M5.88803 19.4932L3.97249 8H2C1.44772 8 1 7.55228 1 7C1 6.44772 1.44772 6 2 6H3.63916H6.76416L7.93498 3.65836C8.44316 2.64201 9.48195 2 10.6183 2H13.3822C14.5185 2 15.5573 2.64201 16.0655 3.65836L17.2363 6H20.361H22C22.5523 6 23 6.44772 23 7C23 7.55228 22.5523 8 22 8H20.0277L18.1121 19.4932C17.871 20.9398 16.6195 22 15.153 22H8.84721C7.38069 22 6.12912 20.9398 5.88803 19.4932ZM18.0001 8H6.00008L7.86081 19.1644C7.94118 19.6466 8.35837 20 8.84721 20H15.153C15.6418 20 16.059 19.6466 16.1393 19.1644L18.0001 8ZM15.0002 6L14.2766 4.55279C14.1072 4.214 13.761 4 13.3822 4H10.6183C10.2395 4 9.89323 4.214 9.72383 4.55279L9.00023 6H15.0002ZM10 17C9.44771 17 9 16.5523 9 16V12C9 11.4477 9.44771 11 10 11C10.5523 11 11 11.4477 11 12V16C11 16.5523 10.5523 17 10 17ZM13 16C13 16.5523 13.4477 17 14 17C14.5523 17 15 16.5523 15 16V12C15 11.4477 14.5523 11 14 11C13.4477 11 13 11.4477 13 12V16Z" fill="#252849"/>
</svg>
