<svg width="24" height="24" viewBox="0 0 24 24" fill="none" xmlns="http://www.w3.org/2000/svg">
<path fill-rule="evenodd" clip-rule="evenodd" d="M6 7.5H18H19C20.1046 7.5 21 8.39543 21 9.5V17.5C21 18.6046 20.1046 19.5 19 19.5H5C3.89543 19.5 3 18.6046 3 17.5V9.5C3 8.39543 3.89543 7.5 5 7.5H6ZM7 5.5V3.5C7 2.94772 6.55228 2.5 6 2.5C5.44772 2.5 5 2.94772 5 3.5V5.5C2.79086 5.5 1 7.29086 1 9.5V17.5C1 19.7091 2.79086 21.5 5 21.5H19C21.2091 21.5 23 19.7091 23 17.5V9.5C23 7.29086 21.2091 5.5 19 5.5V3.5C19 2.94772 18.5523 2.5 18 2.5C17.4477 2.5 17 2.94772 17 3.5V5.5H7Z" fill="#252849"/>
<path fill-rule="evenodd" clip-rule="evenodd" d="M6 11.3125C6 10.7602 6.44772 10.3125 7 10.3125C7.55228 10.3125 8 10.7602 8 11.3125C8 11.8648 7.55228 12.3125 7 12.3125C6.44772 12.3125 6 11.8648 6 11.3125ZM12 10.3125C11.4477 10.3125 11 10.7602 11 11.3125C11 11.8648 11.4477 12.3125 12 12.3125C12.5523 12.3125 13 11.8648 13 11.3125C13 10.7602 12.5523 10.3125 12 10.3125ZM16 11.3125C16 10.7602 16.4477 10.3125 17 10.3125C17.5523 10.3125 18 10.7602 18 11.3125C18 11.8648 17.5523 12.3125 17 12.3125C16.4477 12.3125 16 11.8648 16 11.3125Z" fill="#252849"/>
<path fill-rule="evenodd" clip-rule="evenodd" d="M7 14.8125C6.44772 14.8125 6 15.2602 6 15.8125C6 16.3648 6.44772 16.8125 7 16.8125C7.55228 16.8125 8 16.3648 8 15.8125C8 15.2602 7.55228 14.8125 7 14.8125ZM11 15.8125C11 15.2602 11.4477 14.8125 12 14.8125C12.5523 14.8125 13 15.2602 13 15.8125C13 16.3648 12.5523 16.8125 12 16.8125C11.4477 16.8125 11 16.3648 11 15.8125ZM17 14.8125C16.4477 14.8125 16 15.2602 16 15.8125C16 16.3648 16.4477 16.8125 17 16.8125C17.5523 16.8125 18 16.3648 18 15.8125C18 15.2602 17.5523 14.8125 17 14.8125Z" fill="#252849"/>
</svg>
