<svg width="24" height="24" viewBox="0 0 24 24" fill="none" xmlns="http://www.w3.org/2000/svg">
<path fill-rule="evenodd" clip-rule="evenodd" d="M7 5.5V3.5C7 2.94772 6.55228 2.5 6 2.5C5.44772 2.5 5 2.94772 5 3.5V5.5C2.79086 5.5 1 7.29086 1 9.5V17.5C1 19.7091 2.79086 21.5 5 21.5H19C21.2091 21.5 23 19.7091 23 17.5V9.5C23 7.29086 21.2091 5.5 19 5.5V3.5C19 2.94772 18.5523 2.5 18 2.5C17.4477 2.5 17 2.94772 17 3.5V5.5H7ZM8.3001 11.2375C8.3001 11.9555 7.71807 12.5375 7.0001 12.5375C6.28213 12.5375 5.7001 11.9555 5.7001 11.2375C5.7001 10.5195 6.28213 9.9375 7.0001 9.9375C7.71807 9.9375 8.3001 10.5195 8.3001 11.2375ZM11.9998 12.5375C12.7178 12.5375 13.2998 11.9555 13.2998 11.2375C13.2998 10.5195 12.7178 9.9375 11.9998 9.9375C11.2818 9.9375 10.6998 10.5195 10.6998 11.2375C10.6998 11.9555 11.2818 12.5375 11.9998 12.5375ZM18.2991 11.2375C18.2991 11.9555 17.7171 12.5375 16.9991 12.5375C16.2812 12.5375 15.6991 11.9555 15.6991 11.2375C15.6991 10.5195 16.2812 9.9375 16.9991 9.9375C17.7171 9.9375 18.2991 10.5195 18.2991 11.2375ZM7.0001 17.1313C7.71807 17.1313 8.3001 16.5492 8.3001 15.8313C8.3001 15.1133 7.71807 14.5312 7.0001 14.5312C6.28213 14.5312 5.7001 15.1133 5.7001 15.8313C5.7001 16.5492 6.28213 17.1313 7.0001 17.1313ZM13.3002 15.8313C13.3002 16.5492 12.7182 17.1313 12.0002 17.1313C11.2822 17.1313 10.7002 16.5492 10.7002 15.8313C10.7002 15.1133 11.2822 14.5312 12.0002 14.5312C12.7182 14.5312 13.3002 15.1133 13.3002 15.8313ZM16.9991 17.1313C17.7171 17.1313 18.2991 16.5492 18.2991 15.8313C18.2991 15.1133 17.7171 14.5312 16.9991 14.5312C16.2812 14.5312 15.6991 15.1133 15.6991 15.8313C15.6991 16.5492 16.2812 17.1313 16.9991 17.1313Z" fill="#252849"/>
</svg>
