<svg width="24" height="24" viewBox="0 0 24 24" fill="none" xmlns="http://www.w3.org/2000/svg">
<path fill-rule="evenodd" clip-rule="evenodd" d="M1 19C1 20.6569 2.34315 22 4 22H20C21.6569 22 23 20.6569 23 19V8.97565C23 7.3188 21.6569 5.97565 20 5.97565H17.7796L17.3501 4.2682C17.0147 2.93475 15.8158 2 14.4408 2H9.55924C8.18424 2 6.98526 2.93475 6.64986 4.2682L6.22038 5.97565H4C2.34315 5.97565 1 7.3188 1 8.97565V19ZM4 20C3.44772 20 3 19.5523 3 19V8.97565C3 8.42337 3.44771 7.97565 4 7.97565H6.68815C7.32981 7.97565 7.88934 7.53944 8.04586 6.91716L8.58944 4.75607C8.70125 4.31158 9.1009 4 9.55924 4H14.4408C14.8991 4 15.2988 4.31158 15.4106 4.75607L15.9541 6.91716C16.1107 7.53944 16.6702 7.97565 17.3118 7.97565H20C20.5523 7.97565 21 8.42337 21 8.97565V19C21 19.5523 20.5523 20 20 20H4ZM12 12C13.1046 12 14 12.8954 14 14C14 15.1046 13.1046 16 12 16C10.8954 16 10 15.1046 10 14C10 12.8954 10.8954 12 12 12ZM12 10C14.2091 10 16 11.7909 16 14C16 16.2091 14.2091 18 12 18C9.79086 18 8 16.2091 8 14C8 11.7909 9.79086 10 12 10ZM18 11.0312C18.5523 11.0312 19 10.5835 19 10.0312C19 9.47897 18.5523 9.03125 18 9.03125C17.4477 9.03125 17 9.47897 17 10.0312C17 10.5835 17.4477 11.0312 18 11.0312Z" fill="#252849"/>
<rect x="6.40625" y="5.96875" width="12" height="2" fill="#252849"/>
</svg>
