<svg width="24" height="24" viewBox="0 0 24 24" fill="none" xmlns="http://www.w3.org/2000/svg">
<path fill-rule="evenodd" clip-rule="evenodd" d="M2 12C2 6.47715 6.47715 2 12 2C17.5228 2 22 6.47715 22 12C22 17.5228 17.5228 22 12 22C6.47715 22 2 17.5228 2 12ZM16.2071 16.2061C15.8166 16.5967 15.1834 16.5967 14.7929 16.2061L12.0006 13.4138L9.20726 16.2071C8.81673 16.5977 8.18357 16.5977 7.79304 16.2071C7.40252 15.8166 7.40252 15.1834 7.79304 14.7929L10.5864 11.9996L7.79289 9.20613C7.40237 8.81561 7.40237 8.18244 7.79289 7.79192C8.18342 7.40139 8.81658 7.40139 9.20711 7.79192L12.0006 10.5854L14.793 7.79292C15.1836 7.4024 15.8167 7.4024 16.2073 7.79292C16.5978 8.18345 16.5978 8.81661 16.2073 9.20714L13.4148 11.9996L16.2071 14.7919C16.5976 15.1824 16.5976 15.8156 16.2071 16.2061Z" fill="#252849"/>
</svg>
