<svg width="24" height="24" viewBox="0 0 24 24" fill="none" xmlns="http://www.w3.org/2000/svg">
<path fill-rule="evenodd" clip-rule="evenodd" d="M7.00779 7.0072C7.39834 6.6167 8.0315 6.61675 8.422 7.0073L12.0004 10.5861L15.5787 7.0073C15.9692 6.61675 16.6024 6.6167 16.9929 7.0072C17.3835 7.3977 17.3835 8.03086 16.993 8.42141L13.4145 12.0005L16.9927 15.5791C17.3832 15.9697 17.3831 16.6029 16.9926 16.9934C16.602 17.3838 15.9689 17.3838 15.5784 16.9933L12.0004 13.4148L8.42235 16.9933C8.03186 17.3838 7.39869 17.3838 7.00814 16.9934C6.61759 16.6029 6.61755 15.9697 7.00804 15.5791L10.5862 12.0005L7.00769 8.42141C6.61719 8.03086 6.61723 7.3977 7.00779 7.0072Z" fill="#252849"/>
</svg>
