<svg width="24" height="24" viewBox="0 0 24 24" fill="none" xmlns="http://www.w3.org/2000/svg">
<path fill-rule="evenodd" clip-rule="evenodd" d="M6 22H18C19.6569 22 21 20.6569 21 19V8.41421C21 7.61857 20.6839 6.8555 20.1213 6.29289L16.7071 2.87868C16.1445 2.31607 15.3814 2 14.5858 2H6C4.34315 2 3 3.34315 3 5V19C3 20.6569 4.34315 22 6 22ZM5 5C5 4.44772 5.44772 4 6 4H13V8.6C13 9.3732 13.6268 10 14.4 10H19V19C19 19.5523 18.5523 20 18 20H6C5.44772 20 5 19.5523 5 19V5ZM18.9102 8C18.861 7.89201 18.7926 7.79262 18.7071 7.70711L15.2929 4.29289C15.2074 4.20738 15.108 4.13896 15 4.08982V8H18.9102Z" fill="#252849"/>
</svg>
