<svg width="24" height="24" viewBox="0 0 24 24" fill="none" xmlns="http://www.w3.org/2000/svg">
<path fill-rule="evenodd" clip-rule="evenodd" d="M12.8879 20.5129C12.3354 20.8311 11.665 20.8291 11.1142 20.5081C9.1283 19.3505 4.35906 16.2518 2.63221 12.3044C1.57014 9.89998 1.68278 5.99686 4.24139 4.21822C5.38325 3.29398 6.83566 2.86886 8.28234 3.03543C9.72903 3.20199 11.0873 3.83922 12 5C12.9127 3.83922 14.202 3.20199 15.6487 3.03543C17.0953 2.86886 18.5478 3.29398 19.6896 4.21822C22.3126 5.99686 22.4252 9.88351 21.3953 12.3044C19.7166 16.2573 14.8908 19.3591 12.8879 20.5129Z" stroke="#252849" stroke-width="2" stroke-linecap="round" stroke-linejoin="round"/>
<path d="M18 7.00024C18.9345 7.65802 19.3391 9.62403 18.6648 11.0002" stroke="#252849" stroke-width="2" stroke-linecap="round" stroke-linejoin="round"/>
</svg>
