<svg width="24" height="24" viewBox="0 0 24 24" fill="none" xmlns="http://www.w3.org/2000/svg">
<path fill-rule="evenodd" clip-rule="evenodd" d="M3.64047 3.41821C4.98475 2.34241 6.69253 1.84579 8.39671 2.042C9.69447 2.19142 10.9709 2.67699 11.9958 3.5569C12.9953 2.68309 14.2254 2.1927 15.5343 2.042C17.2365 1.84601 18.9424 2.34129 20.2859 3.41458C21.8662 4.50308 22.6464 6.19405 22.9009 7.87033C23.1563 9.55156 22.9026 11.3159 22.3155 12.6959C21.3872 14.8815 19.6252 16.766 17.9101 18.2209C16.181 19.6877 14.418 20.7855 13.387 21.3794C12.5237 21.8767 11.4708 21.8734 10.6106 21.372C9.58827 20.7761 7.84477 19.6783 6.12711 18.2133C4.4227 16.7596 2.66837 14.8812 1.71671 12.7068C1.10912 11.3303 0.847896 9.56463 1.08919 7.8845C1.32979 6.20916 2.09019 4.51085 3.64047 3.41821ZM18.5757 6.18253C18.124 5.86464 17.5002 5.97305 17.1823 6.42468C16.8645 6.87631 16.9729 7.50012 17.4245 7.81801C17.593 7.93662 17.8425 8.29933 17.9515 8.90728C18.0555 9.4878 17.9924 10.1 17.7669 10.5603C17.5239 11.0562 17.7289 11.6553 18.2249 11.8983C18.7209 12.1413 19.3199 11.9362 19.5629 11.4402C20.0116 10.5244 20.0834 9.4654 19.9201 8.55442C19.7617 7.67087 19.3417 6.72169 18.5757 6.18253Z" fill="#252849"/>
</svg>
