<svg width="24" height="24" viewBox="0 0 24 24" fill="none" xmlns="http://www.w3.org/2000/svg">
<path fill-rule="evenodd" clip-rule="evenodd" d="M20 12C20 16.4183 16.4183 20 12 20C7.58172 20 4 16.4183 4 12C4 7.58172 7.58172 4 12 4C16.4183 4 20 7.58172 20 12ZM22 12C22 17.5228 17.5228 22 12 22C6.47715 22 2 17.5228 2 12C2 6.47715 6.47715 2 12 2C17.5228 2 22 6.47715 22 12ZM10.8613 9.60352V17H12.8438V9.60352H10.8613ZM11.0391 6.95801C10.8431 7.14941 10.7451 7.39323 10.7451 7.68945C10.7451 7.99023 10.8454 8.23633 11.0459 8.42773C11.251 8.61914 11.5199 8.71484 11.8525 8.71484C12.1852 8.71484 12.4518 8.61914 12.6523 8.42773C12.8574 8.23633 12.96 7.99023 12.96 7.68945C12.96 7.39323 12.8597 7.14941 12.6592 6.95801C12.4587 6.7666 12.1898 6.6709 11.8525 6.6709C11.5107 6.6709 11.2396 6.7666 11.0391 6.95801Z" fill="#252849"/>
</svg>
