<svg width="24" height="24" viewBox="0 0 24 24" fill="none" xmlns="http://www.w3.org/2000/svg">
<path fill-rule="evenodd" clip-rule="evenodd" d="M18 1H6C3.79086 1 2 2.79086 2 5V19C2 21.2091 3.79086 23 6 23H18C20.2091 23 22 21.2091 22 19V5C22 2.79086 20.2091 1 18 1ZM8 7C8 7.55228 7.55228 8 7 8C6.44772 8 6 7.55228 6 7C6 6.44772 6.44772 6 7 6C7.55228 6 8 6.44772 8 7ZM10 7C10 6.44772 10.4477 6 11 6H17C17.5523 6 18 6.44772 18 7C18 7.55229 17.5523 8 17 8L11 8C10.4477 8 10 7.55228 10 7ZM10 12C10 11.4477 10.4477 11 11 11H17C17.5523 11 18 11.4477 18 12C18 12.5523 17.5523 13 17 13H11C10.4477 13 10 12.5523 10 12ZM11 16C10.4477 16 10 16.4477 10 17C10 17.5523 10.4477 18 11 18H17C17.5523 18 18 17.5523 18 17C18 16.4477 17.5523 16 17 16L11 16ZM7 13C7.55228 13 8 12.5523 8 12C8 11.4477 7.55228 11 7 11C6.44772 11 6 11.4477 6 12C6 12.5523 6.44772 13 7 13ZM8 17C8 17.5523 7.55228 18 7 18C6.44772 18 6 17.5523 6 17C6 16.4477 6.44772 16 7 16C7.55228 16 8 16.4477 8 17Z" fill="#252849"/>
</svg>
