<svg width="24" height="24" viewBox="0 0 24 24" fill="none" xmlns="http://www.w3.org/2000/svg">
<path fill-rule="evenodd" clip-rule="evenodd" d="M6 1H18C20.2091 1 22 2.79086 22 5V19C22 21.2091 20.2091 23 18 23H6C3.79086 23 2 21.2091 2 19V5C2 2.79086 3.79086 1 6 1ZM6 3C4.89543 3 4 3.89543 4 5V19C4 20.1046 4.89543 21 6 21H18C19.1046 21 20 20.1046 20 19V5C20 3.89543 19.1046 3 18 3H6ZM10 7C10 6.44772 10.4477 6 11 6L17 6C17.5523 6 18 6.44772 18 7C18 7.55229 17.5523 8 17 8L11 8C10.4477 8 10 7.55228 10 7ZM11 11C10.4477 11 10 11.4477 10 12C10 12.5523 10.4477 13 11 13L17 13C17.5523 13 18 12.5523 18 12C18 11.4477 17.5523 11 17 11L11 11ZM10 17C10 16.4477 10.4477 16 11 16L17 16C17.5523 16 18 16.4477 18 17C18 17.5523 17.5523 18 17 18H11C10.4477 18 10 17.5523 10 17ZM7 8C7.55228 8 8 7.55228 8 7C8 6.44772 7.55228 6 7 6C6.44772 6 6 6.44772 6 7C6 7.55228 6.44772 8 7 8ZM8 12C8 12.5523 7.55228 13 7 13C6.44772 13 6 12.5523 6 12C6 11.4477 6.44772 11 7 11C7.55228 11 8 11.4477 8 12ZM7 18C7.55228 18 8 17.5523 8 17C8 16.4477 7.55228 16 7 16C6.44772 16 6 16.4477 6 17C6 17.5523 6.44772 18 7 18Z" fill="#252849"/>
</svg>
