<svg width="24" height="24" viewBox="0 0 24 24" fill="none" xmlns="http://www.w3.org/2000/svg">
<path fill-rule="evenodd" clip-rule="evenodd" d="M2.56556 2.09931C2.91134 1.93253 3.32208 1.97842 3.62252 2.21741L8.6835 6.24318L14.2394 2.192C14.5905 1.93601 15.0667 1.93601 15.4177 2.192L21.5892 6.692C21.8473 6.88024 22 7.18051 22 7.50001V21C22 21.3764 21.7887 21.7208 21.4532 21.8914C21.1178 22.062 20.7149 22.0298 20.4108 21.808L14.8286 17.7376L9.24632 21.808C8.88271 22.0731 8.38679 22.0627 8.03462 21.7826L2.37748 17.2826C2.13897 17.0929 2 16.8048 2 16.5V3.00001C2 2.61611 2.21978 2.26609 2.56556 2.09931ZM13.8281 4.96711L9.64062 8.0205V19.0453L13.8281 15.9919V4.96711ZM15.8281 4.96646V15.9912L20 19.0332V8.00845L15.8281 4.96646ZM4 5.07325L7.64062 7.9692V18.9136L4 16.0177V5.07325Z" fill="#252849"/>
</svg>
