<svg width="24" height="24" viewBox="0 0 24 24" fill="none" xmlns="http://www.w3.org/2000/svg">
<path fill-rule="evenodd" clip-rule="evenodd" d="M14.8125 5.92188V2.48798C14.8125 2.19323 14.4798 2.02138 14.2394 2.192V2.192L9.09833 5.9407C8.84017 6.12894 8.6875 6.42921 8.6875 6.74871V19.6094V21.5187C8.6875 21.8061 9.01166 21.9739 9.24632 21.808V21.808L14.4017 18.0489C14.6598 17.8607 14.8125 17.5604 14.8125 17.2409V5.92188ZM16.8125 18.6758C16.8125 18.9953 16.9652 19.2956 17.2233 19.4838L20.4108 21.808C20.7149 22.0298 21.1178 22.062 21.4532 21.8914C21.7887 21.7208 22 21.3764 22 21V7.50001C22 7.18051 21.8473 6.88024 21.5892 6.692L17.4482 3.67252C17.1838 3.47978 16.8125 3.66858 16.8125 3.99572V18.6758ZM3.62252 2.21741L6.31002 4.35519C6.54853 4.54491 6.6875 4.83304 6.6875 5.13779V19.8817C6.6875 20.2166 6.30057 20.4033 6.03849 20.1948L2.37748 17.2826C2.13897 17.0929 2 16.8048 2 16.5V3.00001C2 2.61611 2.21978 2.26609 2.56556 2.09931C2.91134 1.93253 3.32208 1.97842 3.62252 2.21741Z" fill="#252849"/>
</svg>
