<svg width="24" height="24" viewBox="0 0 24 24" fill="none" xmlns="http://www.w3.org/2000/svg">
<path fill-rule="evenodd" clip-rule="evenodd" d="M4 13C3.44772 13 3 12.5523 3 12C3 9.42625 4.08166 7.10351 5.81238 5.46443C7.42436 3.93781 9.60374 3 12 3C14.3963 3 16.5756 3.93781 18.1876 5.46443C18.5886 5.84419 18.6058 6.47712 18.2261 6.87812C17.8463 7.27912 17.2134 7.29633 16.8124 6.91657C15.557 5.72769 13.8646 5 12 5C10.1354 5 8.44297 5.72769 7.18762 6.91657C5.83911 8.19367 5 9.99803 5 12C5 12.5523 4.55228 13 4 13ZM5.77393 17.1219C6.15369 16.7209 6.78663 16.7037 7.18762 17.0834C8.44297 18.2723 10.1354 19 12 19C15.866 19 19 15.866 19 12C19 11.4477 19.4477 11 20 11C20.5523 11 21 11.4477 21 12C21 16.9706 16.9706 21 12 21C9.60374 21 7.42436 20.0622 5.81238 18.5356C5.41138 18.1558 5.39417 17.5229 5.77393 17.1219Z" fill="#252849"/>
<path fill-rule="evenodd" clip-rule="evenodd" d="M1.29289 9.87868C1.68342 9.48816 2.31658 9.48816 2.70711 9.87868L4 11.1716L5.29289 9.87868C5.68342 9.48816 6.31658 9.48816 6.70711 9.87868C7.09763 10.2692 7.09763 10.9024 6.70711 11.2929L4 14L1.29289 11.2929C0.902369 10.9024 0.902369 10.2692 1.29289 9.87868Z" fill="#252849"/>
<path fill-rule="evenodd" clip-rule="evenodd" d="M22.7071 13.7073C22.3166 14.0978 21.6834 14.0978 21.2929 13.7073L20 12.4144L18.7071 13.7073C18.3166 14.0978 17.6834 14.0978 17.2929 13.7073C16.9024 13.3167 16.9024 12.6836 17.2929 12.293L20 9.58594L22.7071 12.293C23.0976 12.6836 23.0976 13.3167 22.7071 13.7073Z" fill="#252849"/>
</svg>
