<svg width="14" height="14" viewBox="0 0 14 14" fill="none" xmlns="http://www.w3.org/2000/svg">
<path fill-rule="evenodd" clip-rule="evenodd" d="M0.292941 0.292845C0.683492 -0.0976526 1.31666 -0.0976095 1.70715 0.292941L6.99805 5.58455L12.2889 0.292941C12.6794 -0.0976095 13.3126 -0.0976526 13.7032 0.292845C14.0937 0.683343 14.0937 1.31651 13.7032 1.70706L8.41216 6.99886L13.7028 12.2902C14.0933 12.6807 14.0932 13.3139 13.7027 13.7044C13.3121 14.0949 12.6789 14.0948 12.2884 13.7043L6.99805 8.41317L1.70765 13.7043C1.31715 14.0948 0.683988 14.0949 0.293437 13.7044C-0.0971136 13.3139 -0.0971566 12.6807 0.293341 12.2902L5.58393 6.99886L0.292845 1.70706C-0.0976526 1.31651 -0.0976095 0.683343 0.292941 0.292845Z" fill="#3B3E5B"/>
</svg>
