<svg width="24" height="24" viewBox="0 0 24 24" fill="none" xmlns="http://www.w3.org/2000/svg">
<path fill-rule="evenodd" clip-rule="evenodd" d="M5 12C5 8.13401 8.13401 5 12 5C15.866 5 19 8.13401 19 12C19 13.5418 18.5027 14.9646 17.6595 16.1205C17.6008 16.2009 17.5558 16.2872 17.5242 16.3765C17.4996 16.3984 17.4758 16.4217 17.453 16.4464C17.0782 16.852 17.1032 17.4847 17.5089 17.8595L20.3839 20.5158C20.7895 20.8905 21.4222 20.8655 21.797 20.4599C22.1718 20.0542 22.1468 19.4215 21.7411 19.0468L19.5001 16.9763C20.4477 15.5507 21 13.8386 21 12C21 7.02944 16.9706 3 12 3C7.02944 3 3 7.02944 3 12C3 16.9706 7.02944 21 12 21C13.435 21 14.7943 20.6634 16.0006 20.0639C16.4952 19.8182 16.6969 19.218 16.4511 18.7234C16.2053 18.2288 15.6051 18.0271 15.1105 18.2729C14.1746 18.738 13.1193 19 12 19C8.13401 19 5 15.866 5 12Z" fill="#252849"/>
</svg>
