<svg width="24" height="24" viewBox="0 0 24 24" fill="none" xmlns="http://www.w3.org/2000/svg">
<path d="M10.9799 1.99976C10.5326 1.99976 10.1156 2.20984 9.87132 2.5582L8.6086 4.35873L6.55235 5.49234L4.24422 5.60903C3.79763 5.63162 3.39352 5.86239 3.16988 6.22261L2.17732 7.82132C1.95369 8.18155 1.94081 8.6224 2.14308 8.99335L3.1885 10.9106V13.0889L2.14308 15.0062C1.94081 15.3771 1.95369 15.818 2.17732 16.1782L3.16988 17.7769C3.39352 18.1371 3.79763 18.3679 4.24422 18.3905L6.55235 18.5072L8.66372 19.6408L9.92644 21.4413C10.1708 21.7897 10.5877 21.9998 11.035 21.9998H13.0201C13.4674 21.9998 13.8844 21.7897 14.1287 21.4413L15.3914 19.6408L17.4477 18.5072L19.7558 18.3905C20.2024 18.3679 20.6065 18.1372 20.8301 17.7769L21.8227 16.1782C22.0463 15.818 22.0592 15.3772 21.8569 15.0062L20.8115 13.089V10.9106L21.8569 8.99335C22.0592 8.6224 22.0463 8.18155 21.8227 7.82132L20.8301 6.22261C20.6065 5.86239 20.2024 5.63162 19.7558 5.60903L17.4477 5.49234L15.3363 4.35873L14.0736 2.5582C13.8293 2.20984 13.4123 1.99976 12.965 1.99976H10.9799Z" stroke="#252849" stroke-width="2"/>
<path d="M9.5359 11.9998C9.5359 11.1194 10.0056 10.306 10.7679 9.86578C11.5303 9.42561 12.4697 9.42561 13.2321 9.86578C13.9944 10.306 14.4641 11.1194 14.4641 11.9998C14.4641 12.8801 13.9944 13.6936 13.2321 14.1337C12.4697 14.5739 11.5303 14.5739 10.7679 14.1337C10.0056 13.6936 9.5359 12.8801 9.5359 11.9998Z" stroke="#252849" stroke-width="2"/>
</svg>
