<svg width="24" height="24" viewBox="0 0 24 24" fill="none" xmlns="http://www.w3.org/2000/svg">
<path fill-rule="evenodd" clip-rule="evenodd" d="M9.65845 1.61429C9.9272 1.23109 10.3859 1 10.8779 1H13.0615C13.5535 1 14.0122 1.23109 14.2809 1.61429L15.6699 3.59487L17.9924 4.84185L20.5314 4.9702C21.0226 4.99505 21.4671 5.24889 21.7131 5.64514L22.8049 7.40372C23.0509 7.79997 23.0651 8.28491 22.8426 8.69295L21.6927 10.8019V13.1982L22.8426 15.3071C23.0651 15.7151 23.0509 16.2001 22.8049 16.5963L21.7131 18.3549C21.4671 18.7512 21.0226 19.005 20.5314 19.0299L17.9924 19.1582L15.7306 20.4051L14.3416 22.3857C14.0728 22.7689 13.6141 23 13.1222 23H10.9385C10.4465 23 9.98783 22.7689 9.71908 22.3857L8.33009 20.4051L6.00758 19.1582L3.46865 19.0298C2.97739 19.005 2.53287 18.7511 2.28687 18.3549L1.19505 16.5963C0.949054 16.2 0.934896 15.7151 1.15739 15.3071L2.30735 13.1981V10.8019L1.15739 8.69295C0.934896 8.28491 0.949054 7.79997 1.19505 7.40372L2.28687 5.64514C2.53287 5.24889 2.97739 4.99505 3.46865 4.9702L6.00758 4.84185L8.26946 3.59487L9.65845 1.61429ZM13.7321 9.00039C12.6603 8.38159 11.3397 8.38159 10.2679 9.00039C9.19615 9.61919 8.5359 10.7628 8.5359 12.0004C8.5359 13.238 9.19615 14.3816 10.2679 15.0004C11.3397 15.6192 12.6603 15.6192 13.7321 15.0004C14.8038 14.3816 15.4641 13.238 15.4641 12.0004C15.4641 10.7628 14.8038 9.61919 13.7321 9.00039Z" fill="#252849"/>
</svg>
