<svg width="24" height="24" viewBox="0 0 24 24" fill="none" xmlns="http://www.w3.org/2000/svg">
<path d="M3.00036 11.5C3.00036 9.99513 4.24262 8.75 5.80634 8.75C7.37005 8.75 8.6123 9.99513 8.6123 11.5C8.6123 13.0049 7.37005 14.25 5.80633 14.25C4.24262 14.25 3.00036 13.0049 3.00036 11.5Z" stroke="#252849" stroke-width="2"/>
<path d="M17.9996 6.75C17.9996 8.25487 16.7574 9.5 15.1937 9.5C13.63 9.5 12.3877 8.25487 12.3877 6.75C12.3877 5.24513 13.63 4 15.1937 4C16.7574 4 17.9996 5.24513 17.9996 6.75Z" stroke="#252849" stroke-width="2"/>
<path d="M17.9996 17.25C17.9996 18.7549 16.7574 20 15.1937 20C13.63 20 12.3877 18.7549 12.3877 17.25C12.3877 15.7451 13.63 14.5 15.1937 14.5C16.7574 14.5 17.9996 15.7451 17.9996 17.25Z" stroke="#252849" stroke-width="2"/>
<path d="M13.1807 8.8515C13.651 8.5619 13.7975 7.94591 13.5079 7.47564C13.2183 7.00537 12.6023 6.85891 12.132 7.1485L13.1807 8.8515ZM12.132 7.1485L8.07232 9.6485L9.12104 11.3515L13.1807 8.8515L12.132 7.1485Z" fill="#252849"/>
<path d="M12.657 16L8.08984 12.5" stroke="#252849" stroke-width="2"/>
</svg>
