<svg width="24" height="24" viewBox="0 0 24 24" fill="none" xmlns="http://www.w3.org/2000/svg">
<path fill-rule="evenodd" clip-rule="evenodd" d="M7.26202 0.31952L0.319519 7.26202C-0.106507 7.68805 -0.106507 8.37877 0.319519 8.8048L7.26202 15.7473C7.68805 16.1733 8.37877 16.1733 8.8048 15.7473C9.23083 15.3213 9.23083 14.6306 8.8048 14.2045L3.7246 9.12432H16.3636C19.3761 9.12432 21.8182 11.5664 21.8182 14.5789V22.875C21.8182 23.4775 22.3066 23.9659 22.9091 23.9659C23.5116 23.9659 24 23.4775 24 22.875V14.5789C24 10.3614 20.5811 6.9425 16.3636 6.9425H3.7246L8.8048 1.8623C9.23083 1.43627 9.23083 0.745547 8.8048 0.31952C8.37877 -0.106507 7.68805 -0.106507 7.26202 0.31952Z" fill="#252849"/>
</svg>
