<svg width="24" height="24" viewBox="0 0 24 24" fill="none" xmlns="http://www.w3.org/2000/svg">
<path fill-rule="evenodd" clip-rule="evenodd" d="M16.738 0.31952L23.6805 7.26202C24.1065 7.68805 24.1065 8.37877 23.6805 8.8048L16.738 15.7473C16.312 16.1733 15.6212 16.1733 15.1952 15.7473C14.7692 15.3213 14.7692 14.6306 15.1952 14.2045L20.2754 9.12432H7.63636C4.6239 9.12432 2.18182 11.5664 2.18182 14.5789V22.875C2.18182 23.4775 1.6934 23.9659 1.09091 23.9659C0.488417 23.9659 0 23.4775 0 22.875V14.5789C0 10.3614 3.41892 6.9425 7.63636 6.9425H20.2754L15.1952 1.8623C14.7692 1.43627 14.7692 0.745547 15.1952 0.31952C15.6212 -0.106507 16.312 -0.106507 16.738 0.31952Z" fill="#252849"/>
</svg>
